<svg width="800" height="600" xmlns="http://www.w3.org/2000/svg">

 <g>
  <title>Layer 1</title>
  <path id="svg_2" d="m174.15975,123.49864c3.50451,-10.04106 17.23529,0 0,12.90993c-17.23529,-12.90993 -3.50451,-22.95099 0,-12.90993z" stroke="#000" fill="#FFB27C"/>
  <path id="svg_4" d="m57.71498,74.34658l7.63937,0l2.36063,-7.63934l2.36063,7.63934l7.63937,0l-6.18037,4.72132l2.36075,7.63934l-6.18038,-4.72145l-6.18037,4.72145l2.36075,-7.63934l-6.18037,-4.72132z" stroke="#000" fill="#9ACEE6"/>
  <path id="svg_5" d="m162.76499,369.69265l6.49347,0l2.00653,-6.87541l2.00653,6.87541l6.49346,0l-5.25331,4.24919l2.00663,6.87541l-5.25332,-4.2493l-5.25332,4.2493l2.00664,-6.87541l-5.25332,-4.24919z" stroke="#000" fill="#97944B"/>
  <path stroke="#000" id="svg_6" d="m705.73497,131.80852l7.25741,0l2.2426,-8.0213l2.2426,8.0213l7.25741,0l-5.87136,4.95738l2.24271,8.0213l-5.87136,-4.95752l-5.87136,4.95752l2.24271,-8.0213l-5.87136,-4.95738z" fill="#D3BEE7"/>
  <text transform="matrix(1 0 0 1 0 0)" style="cursor: move;" font-weight="bold" stroke="#000" xml:space="preserve" text-anchor="start" font-family="'Yaldevi'" font-size="17" id="svg_9" y="134.75921" x="289.24033" stroke-width="0" fill="#559E84">Record Programming Notes</text>
  <text font-weight="bold" stroke="#000" xml:space="preserve" text-anchor="start" font-family="'Yaldevi'" font-size="17" id="svg_13" y="184.33333" x="289.90698" stroke-width="0" fill="#559E84">Share Programming Knowledge</text>
  <path id="svg_15" d="m241.01583,409.67645c0.78268,-1.30556 2.21469,-3.00627 -0.24566,-3.41656c-0.68536,-0.32407 -1.37093,-0.89752 -2.05541,-0.25871c-1.52293,0.55415 -2.84312,1.32911 -1.24129,2.77945c0.71033,0.93663 1.3564,2.98028 2.16103,3.20535c0.48023,-0.75959 0.9301,-1.53513 1.38133,-2.30953l0,0zm-3.36439,3.60483c-1.39807,-2.29842 -2.52312,-4.76419 -4.23429,-6.88452c-2.08121,-2.04678 -6.18194,-1.13439 -7.11384,1.50567c-1.23792,2.61015 1.4331,5.72659 4.45684,5.3999c2.29455,0.0354 4.60215,0.13057 6.89129,-0.02105zm11.61756,0.07759c2.97353,-0.36715 4.68351,-3.81524 2.9905,-6.10469c-1.50029,-2.44325 -5.81657,-2.52842 -7.3234,-0.04554c-1.30476,2.00729 -2.43723,4.10483 -3.63454,6.16715c2.64702,0.13941 5.31893,0.10689 7.96745,-0.01691l0,0zm4.92446,2.93983c1.01369,-0.82159 4.93914,-1.79017 1.9662,-2.57044c-0.73646,-0.1925 -1.59508,-1.0756 -2.25697,-0.83393c-1.43727,1.64601 -3.64721,2.61164 -5.95459,2.5105c-0.45169,0.13676 -2.75555,-0.208 -2.13307,0.18359c1.62777,0.85493 3.21455,1.7834 4.89824,2.54223c1.17929,-0.57852 2.32383,-1.2158 3.48019,-1.83195l0,0zm-23.15946,0.46515c0.86688,-0.46515 1.73375,-0.9303 2.60062,-1.39545c-2.64975,-0.12128 -5.68216,0.23052 -7.68469,-1.73256c-0.5646,-0.58232 -1.106,-1.24901 -1.8885,-0.51589c-0.93728,0.59478 -3.82022,1.2043 -1.60051,1.93036c1.93287,1.05172 3.85215,2.1291 5.83279,3.10301c0.9438,-0.40768 1.83346,-0.9172 2.74029,-1.38946l0,0zm12.70426,5.19011c1.12337,-0.8314 3.84435,-1.62349 3.93526,-2.51566c-2.53983,-1.34624 -5.00569,-2.84514 -7.66285,-3.98304c-0.91443,-0.31956 -1.65582,0.17215 -2.39187,0.59922c-2.17653,1.19251 -4.40543,2.31101 -6.51113,3.60759c2.75388,1.56856 5.54086,3.09075 8.35495,4.56586c1.43534,-0.74155 2.85212,-1.51341 4.27565,-2.27397l0,0zm11.27012,2.59506c1.16543,-0.67733 2.33087,-1.35465 3.49631,-2.03198c-0.00954,-2.26858 0.02979,-4.53811 -0.03759,-6.8059c-2.35218,1.20894 -4.6709,2.47824 -6.95049,3.79994c-0.24932,2.33981 -0.12288,4.71832 -0.06869,7.06992c1.20287,-0.65277 2.37651,-1.35094 3.56046,-2.03198zm-27.33275,-1.42924c0.11837,-1.93378 0.37352,-4.13818 -2.15828,-4.71102c-1.59884,-0.68687 -3.81498,-2.44676 -5.04673,-2.42911c-0.03838,2.17893 -0.01807,4.35826 -0.02222,6.53739c2.36176,1.35759 4.68161,2.78054 7.09434,4.06029c0.23395,-1.12321 0.08101,-2.31388 0.13289,-3.45755zm16.91253,7.48735c1.39694,-0.81235 2.79388,-1.62469 4.19082,-2.43704c-0.00647,-2.34204 0.09867,-4.68746 -0.01624,-7.02699c-1.53524,0.40552 -3.29119,1.659 -4.90865,2.43759c-1.21113,0.65347 -2.42227,1.30694 -3.6334,1.96041c0.02388,2.50073 -0.06529,5.00603 0.08832,7.50306c1.44786,-0.77924 2.85724,-1.61848 4.27914,-2.43703l0,0zm-5.85586,-1.3145c0,-1.25051 0,-2.50102 0,-3.75153c-2.80433,-1.50955 -5.59968,-3.0334 -8.41493,-4.52559c-0.15568,2.39133 -0.06672,4.79165 -0.09019,7.1871c2.8037,1.61689 5.57835,3.27793 8.41752,4.84155c0.11048,-1.24608 0.07014,-2.5021 0.08761,-3.75153zm16.34579,5.02701c1.14288,-0.701 2.28575,-1.40199 3.42863,-2.10299c-0.04769,-2.22249 0.11773,-4.47505 -0.12285,-6.67302c-2.37675,1.24905 -4.67055,2.67106 -7.00494,4.00445c0.05608,2.29954 -0.11515,4.62541 0.14274,6.9053c1.20575,-0.68169 2.37477,-1.41747 3.55642,-2.13375zm-27.42769,-1.24596c-0.0093,-1.16528 -0.01862,-2.33056 -0.02792,-3.49584c-2.36114,-1.36067 -4.69254,-2.76686 -7.08915,-4.07403c-0.14998,2.2325 -0.0645,4.4737 -0.08705,6.71019c2.38194,1.45232 4.73709,2.94312 7.15096,4.35011c0.09249,-1.16001 0.04659,-2.32786 0.05316,-3.49043zm16.99813,7.65773c1.38735,-0.8487 2.7747,-1.6974 4.16206,-2.54609c-0.00322,-2.36649 0.04898,-4.734 -0.02006,-7.09968c-2.8241,1.60394 -5.6293,3.23739 -8.41382,4.89898c-0.31469,2.28508 -0.11065,4.64107 -0.11111,6.95112c0.86423,0.48488 3.07391,-1.66404 4.38293,-2.20432l0,0zm-5.91624,-1.01305c-0.16776,-1.63178 0.72152,-3.92859 -1.53003,-4.56118c-2.27061,-1.32469 -4.53209,-2.66385 -6.83257,-3.9442c-0.3353,2.24026 0.01538,4.5741 -0.24219,6.84176c2.75872,1.83694 5.58953,3.59301 8.4719,5.26075c0.23118,-1.16871 0.08739,-2.40668 0.13289,-3.59714l0,0zm-9.64805,-0.43137c-3.35774,-2.06462 -6.71548,-4.12924 -10.07321,-6.19386c0.00381,-6.37171 -0.09177,-12.74494 0.03101,-19.11545c1.68139,-0.95561 3.47067,-1.73897 5.20107,-2.61572c-1.11766,-2.94705 0.4949,-6.52833 3.73571,-7.63144c2.71671,-1.02676 5.99149,-0.10018 7.72353,2.06132c1.25805,-0.59431 2.5161,-1.18861 3.77415,-1.78292c1.2648,0.59968 2.52962,1.19936 3.79442,1.79905c1.81235,-1.9802 4.91739,-3.11025 7.60818,-2.00049c3.22986,1.0457 4.99037,4.61898 3.83208,7.5614c1.74313,0.9065 3.63832,1.61487 5.23657,2.72104c0.07085,6.33397 0.00063,12.66887 -0.00579,19.00323c-6.68109,4.07263 -13.2539,8.30072 -20.04346,12.2185c-1.97429,-0.00049 -3.67838,-1.97502 -5.51038,-2.77558c-1.77116,-1.07859 -3.53784,-2.16339 -5.30387,-3.24906l0.00001,0z" stroke="#000" fill="#884D58"/>
  <path id="svg_17" d="m649.77067,520.87302c-17.81523,-4.39239 -28.1361,-22.45048 -26.91869,-38.83218c-0.45607,-21.39757 1.66808,-43.91326 -9.34121,-63.58807c-6.27515,-14.69 -16.96494,-27.65998 -21.42594,-42.96856c-5.55126,-23.75023 1.30573,-50.6687 21.9662,-66.61315c23.30015,-18.55588 60.50871,-20.97443 86.15755,-5.20306c18.09031,11.58124 31.14289,30.6827 30.65797,51.52687c2.12269,15.57522 -4.49128,30.22506 -12.27187,43.61451c-5.57448,10.78079 -12.08465,21.33032 -17.14435,32.23132c-1.33386,22.35108 -0.56887,44.90717 -4.18683,67.066c-6.02685,17.17055 -28.73974,28.84482 -47.49283,22.76631l0,0.00001zm47.05267,-39.96411c-10.57284,-5.29677 -25.76595,-1.85307 -38.05533,-2.99338c-10.0388,1.86617 -27.87667,-3.82767 -33.2135,4.71333c12.20499,4.43736 26.54841,1.11105 39.54178,1.84519c10.39665,-0.92804 22.35823,0.88007 31.72704,-3.56515l0,0.00001zm-0.79183,-9.96699c1.55597,-13.45692 -21.34036,-6.5901 -30.64171,-8.59335c-12.31094,2.31594 -31.90269,-4.95733 -39.64529,5.38207c4.58803,10.39031 25.04944,3.08292 35.79409,5.38826c11.45809,-0.37736 23.34529,0.38168 34.4929,-2.17698l0.00001,0zm0.14255,-23.5777c3.0226,-26.21444 20.2682,-48.04127 30.25417,-72.02082c8.21037,-28.71041 -8.05003,-61.51072 -37.48929,-73.56212c-29.30227,-13.49735 -68.34238,-3.30092 -84.90206,23.14685c-15.95537,21.84654 -12.9104,51.52989 2.68397,72.77547c11.12698,18.56753 20.0046,39.43352 18.55846,61.04187c23.097,0 46.19402,0 69.29104,0c0.5346,-3.79369 1.06901,-7.58764 1.6037,-11.38124zm-51.13292,-37.13875c-9.15113,-14.78838 -18.54544,-29.69072 -24.91783,-45.7177c5.72919,-6.89265 7.39584,-14.57034 9.17559,-22.66887c16.08012,-2.93557 -2.04681,17.03109 13.13511,17.48104c13.47626,5.44951 7.56443,-26.44273 18.76077,-14.94708c-8.03712,12.61638 15.78704,25.1673 16.66141,7.11898c-1.15495,-13.62734 14.39996,-11.07414 8.33542,1.28866c0.50054,6.35964 11.64137,8.18287 11.83212,13.29786c-8.02029,16.16863 -14.99164,32.86149 -24.48857,48.34019c-2.13766,-5.99293 8.40757,-21.01321 11.77719,-29.83244c6.50212,-7.62347 12.08947,-28.16809 -4.86116,-25.36765c-9.83286,14.2541 -23.06016,-8.98503 -32.6879,4.67539c-8.17295,2.26582 -21.02722,-13.15518 -23.3981,1.67241c6.15552,17.61138 18.96379,32.62074 25.6653,50.05033c-2.274,-1.24608 -3.56887,-3.43223 -4.98933,-5.39112l0,0.00001zm-12.84461,-64.54355c-4.44996,-2.0185 1.87561,10.73077 -0.00009,0l0.00009,0zm26.59732,1.50587c-5.77651,-9.08598 -2.67847,11.02415 0,0zm25.78036,0c-5.77651,-9.08598 -2.67851,11.02415 0,0zm-120.0196,-67.1376c-10.20987,-9.63058 -21.49562,-18.6673 -30.37485,-29.28285c22.18225,17.06576 42.4853,36.28545 62.47578,55.55328c5.30835,6.7795 -9.26077,-6.33095 -11.97231,-8.52855c-6.78458,-5.83983 -13.48029,-11.76843 -20.12863,-17.74188l0.00001,0zm157.66085,27.53484c17.25717,-19.98451 33.3585,-40.93544 51.96427,-59.85541c-3.1155,8.14599 -13.14454,17.89326 -19.45043,26.28288c-10.53078,12.17658 -20.3743,25.05108 -32.41652,35.96857c-1.503,1.47652 -3.74734,-2.02073 -0.09716,-2.39605l-0.00015,0l-0.00001,0zm-37.37943,-18.95902c5.9625,-15.85057 14.61121,-30.93845 24.26006,-45.12435c-0.22425,7.86963 -10.45757,22.7852 -15.37634,32.54323c-2.78252,3.92672 -5.12949,10.18903 -8.88372,12.58112zm-76.35554,-20.32777c-4.15343,-5.63069 -16.65637,-18.74158 -14.32188,-20.52956c12.05444,12.42198 24.31475,25.24339 32.97408,39.93345c-7.37429,-5.25651 -12.68039,-12.84864 -18.65221,-19.4039l0.00001,0zm47.73522,-4.43141c-0.8406,-5.28798 1.76887,-30.53165 3.21854,-13.39068c0.00515,10.73962 1.2113,22.82979 -2.00507,32.60486c-1.37733,-6.28459 -1.04316,-12.82724 -1.21347,-19.21418z" stroke="#000" fill="#97944B"/>
  <text font-weight="bold" stroke="#000" xml:space="preserve" text-anchor="start" font-family="'Yaldevi'" font-size="17" id="svg_25" y="233.27412" x="289.90698" stroke-width="0" fill="#559E84">Share Life Experience</text>
  <path id="svg_27" d="m94.23532,483.27284c0,0 -6.89872,-0.38552 -10.55227,-1.85936c-3.65355,-1.47386 -5.35853,-3.35302 -5.35853,-3.35302c0,0 1.91736,1.62086 4.608,2.84897c1.64041,0.74873 3.56836,1.35149 5.5245,1.35149c0,0 -3.02012,-1.28959 -5.2855,-0.3685c0,0 1.63195,-0.84746 4.45736,-0.20264c2.82557,0.6448 4.2381,0.2763 4.2381,0.2763c0,0 -4.77379,-0.01841 -6.84424,-1.05012c-2.07048,-1.03171 -2.582,-1.62113 -2.582,-1.62113c0,0 2.1435,1.6765 3.79979,1.87916c1.65629,0.20266 4.50605,-0.03695 4.50605,-0.03695c0,0 -2.94712,0.05537 -3.87281,-0.2579c-0.92552,-0.31311 -4.57907,-0.93951 -5.23665,0.3685c0,0 0.7306,-1.38179 4.06753,-0.97646c3.33693,0.40532 3.65374,0.27644 3.65374,0.27644c0,0 -5.91893,-1.73189 -9.2315,-0.75541c-3.3126,0.97646 -3.09336,1.80551 -3.09336,1.80551c0,0 0.21926,-2.87404 8.30584,-2.35825c0,0 -3.77526,-0.42374 -5.16381,-1.27118c-1.38817,-0.84746 -1.48571,-1.40008 -1.48571,-1.40008c0,0 1.5831,1.8238 3.53183,1.84221c1.94857,0.01854 2.50879,-0.11047 2.50879,-0.11047c0,0 -3.79976,-0.66321 -5.60229,-0.51593c-1.80236,0.14744 -4.72512,0.6264 -6.25972,-1.47384c0,0 1.43705,2.00819 5.35872,1.30815c3.92148,-0.70016 6.38141,0.07364 6.38141,0.07364c0,0 -5.9431,-0.86587 -7.16105,-1.73173c-1.21779,-0.86587 -1.36383,-2.35827 -1.36383,-2.35827c0,0 0.51152,2.50555 3.02012,2.74518c2.50898,0.23947 6.30857,0.1841 7.30729,1.0501c0,0 -2.50879,-1.4002 -5.11512,-1.21595c-2.60614,0.18425 -6.62517,2.72662 -8.67112,2.06341c-2.04593,-0.66321 -2.97162,-0.11059 -2.97162,-0.11059c0,0 0.85267,-0.6448 2.31386,-0.3501c1.46157,0.29486 1.77819,0.73699 4.28698,-0.57101c2.50879,-1.30801 6.77124,-2.92926 9.47493,-1.52921c0,0 -12.63301,-2.64658 -13.99684,-8.02604c0,0 1.20102,3.58675 7.37165,5.18321c6.17081,1.59646 6.52781,1.47386 6.52781,1.47386c0,0 -9.51531,-0.76167 -13.96472,-7.24662c0,0 3.8645,5.03577 9.87286,5.69898c0,0 -5.06643,-1.3264 -8.99622,-5.37944c-3.92924,-4.05318 -4.09224,-5.40441 -4.09224,-5.40441c0,0 4.7745,6.48493 13.80317,7.63965c0,0 -7.07215,-1.52948 -12.13841,-6.41156c-5.06624,-4.88208 -3.48298,-5.84013 -3.48298,-5.84013c0,0 -1.09607,-1.75016 -0.26812,-2.13707c0,0 -1.63195,-1.4002 -1.1691,-2.54237c0,0 1.1691,4.32934 7.13672,7.16657c5.9676,2.83709 6.47912,3.18717 6.47912,3.18717c0,0 -6.18686,-3.20558 -8.13543,-4.7532c-1.94857,-1.5475 -4.14074,-2.74504 -5.40738,-6.06108c0,0 1.21798,3.27922 5.06643,5.52688c3.84829,2.24766 4.60357,2.21071 4.60357,2.21071c0,0 -7.89184,-3.05816 -9.76736,-8.1245c0,0 1.09607,3.73991 9.79172,7.31399c0,0 -8.71998,-3.88733 -9.79172,-8.03257c0,0 -0.19474,-0.60797 0.17055,-0.90268c0,0 -0.4385,-0.79223 -0.29226,-1.78711c0.14605,-0.99475 0.31662,-2.06327 0.31662,-2.06327c0,0 -0.38964,4.20046 5.01757,7.44287c0,0 -6.3816,-5.78518 -4.10793,-10.55039c0,0 -0.48755,2.62841 1.03893,3.83196c0,0 -1.29929,-2.11225 -0.68193,-4.59338c0,0 -0.16262,2.62843 1.46138,5.01111c1.62402,2.38268 6.8201,7.00072 6.8201,7.00072c0,0 -6.10536,-5.40426 -7.07974,-8.45015c-0.97419,-3.04589 -0.42245,-5.03552 -0.42245,-5.03552c0,0 -0.55174,2.84924 1.81893,5.69885c2.37067,2.84951 3.18276,3.16877 3.18276,3.16877c0,0 -6.52817,-5.13412 -4.06012,-10.83283c0,0 -0.1621,5.77249 2.53331,8.2535c2.69593,2.48112 3.50731,2.55478 3.50731,2.55478c0,0 -5.55343,-3.31619 -5.35869,-7.95879c0.19507,-4.64261 1.23471,-4.88822 1.23471,-4.88822c0,0 -2.30629,3.9299 1.39595,7.71303c3.70241,3.78313 2.95557,3.07056 2.95557,3.07056c0,0 -5.26098,-5.15838 -4.22169,-9.18702c1.03929,-4.02861 3.02012,-3.97938 3.02012,-3.97938c0,0 -2.17557,1.08067 -2.07822,3.56166c0.09738,2.48101 3.21522,7.29558 3.21522,7.29558c0,0 -3.47522,-6.60755 -2.53329,-8.64655c0.94157,-2.03886 2.92295,-2.65284 2.92295,-2.65284c0,0 -3.86524,1.67038 -1.62438,6.14113c0,0 -1.39629,-4.24929 2.33822,-6.23905c0,0 -2.66276,1.91612 -1.55874,5.47779c0,0 -0.32474,-4.3727 3.21503,-5.87097c0,0 -2.27276,1.35124 -2.30541,4.07784c0,0 0.48719,-2.75143 3.18243,-4.29892c0,0 -2.04612,2.35813 -1.91595,5.74796c0,0 1.52648,-3.34033 2.27367,-5.79692c0,0 0.12948,1.32655 -0.42245,2.9721c-0.55193,1.64581 -0.81174,1.79311 -0.81174,1.79311c0,0 1.98083,-2.21071 2.07838,-4.37231c0,0 0.09738,2.11264 -0.74683,3.88134c0,0 1.60798,-0.97794 1.81048,-3.14487c0.00317,-0.03229 0.00564,-0.06485 0.0081,-0.09767c0,0 0.45438,3.16848 -1.20191,5.84615c-1.65629,2.67779 -2.43576,2.92327 -2.43576,2.92327c0,0 3.67031,-2.62856 4.22224,-6.26387c0,0 0.0649,2.03859 -0.90929,3.80716c-0.97421,1.76868 -2.01367,3.11992 -2.01367,3.11992c0,0 4.90379,-3.36567 4.09205,-9.40807c0,0 0.94157,3.36501 0.09738,5.91978c-0.84421,2.55478 -5.00172,6.48495 -5.00172,6.48495c0,0 6.46326,-4.32347 6.75536,-11.17677c0,0 0.77948,4.05304 -2.19217,7.73759c0,0 4.38434,-3.7582 4.28698,-7.33228c0,0 0.97438,1.80538 0.14605,4.27412c-0.82798,2.46872 -4.77379,8.2535 -8.86603,9.6537c0,0 11.10689,-4.53215 10.37627,-12.30654c0,0 1.21779,3.53712 -0.29226,6.96391c-1.51007,3.42664 -7.2586,8.65881 -7.2586,8.65881c0,0 8.23279,-5.74796 9.45077,-12.01195c0,0 0.38964,-1.91585 -0.09755,-3.05816c0,0 1.99743,0.66321 2.14348,3.50044c0.14605,2.83709 -1.80233,6.66918 -3.16636,9.35884c-1.36402,2.68979 -4.28679,6.26387 -4.28679,6.26387c0,0 9.49927,-10.98012 8.13508,-16.35971c0,0 2.43593,2.3213 2.14348,5.34278c-0.2921,3.02132 -2.33822,11.42226 -8.03772,15.21739c0,0 6.138,-3.68454 7.84298,-10.39055c0,0 0.87683,-3.57408 0.73062,-5.52702c0,0 1.21779,4.12682 0.77945,7.22194c-0.43833,3.09512 -5.01757,10.0222 -5.01757,10.0222c0,0 5.01757,-5.78491 5.35853,-9.39582c0,0 0.53588,2.17388 0.14624,4.16365c-0.38964,1.98963 -2.6305,5.71113 -4.53057,7.88501c0,0 3.99469,-4.34775 4.82284,-6.26387c0.82817,-1.91599 0.68193,-3.02133 0.68193,-3.02133c0,0 0.97438,5.96916 -0.58455,8.76942c-1.55893,2.80026 -6.47896,6.96391 -6.81991,8.91671c0,0 2.28952,-4.532 7.25841,-5.23217c4.96888,-0.70004 7.79429,0.3685 7.79429,0.3685c0,0 -7.55069,-1.84234 -11.59408,1.62126c0,0 -2.04593,1.87916 -2.09479,3.57408c0,0 5.26134,-2.80026 6.08931,-6.63237c0.82831,-3.83196 4.67679,-4.42154 4.67679,-4.42154c0,0 -4.28698,1.21595 -4.23829,4.53215c0.04869,3.31617 -4.87153,7.2218 -6.04062,7.11133c0,0 3.99469,-0.84746 5.40738,-3.38983c0,0 -0.92569,2.57918 -2.92276,4.07145c-1.99743,1.49225 -1.33986,2.13705 -1.33986,2.13705c0,0 0.6821,-1.60272 2.67936,-2.9477c1.99743,-1.34483 4.62791,-3.66613 4.65226,-5.23217c0.02433,-1.56589 2.19217,-3.13193 2.19217,-3.13193c0,0 -1.70498,1.63967 -1.77819,2.8188c-0.07302,1.179 0.17057,3.02133 -2.67917,4.56896c-2.84993,1.5475 -4.04338,4.32936 -3.99469,5.54529c0,0 1.98931,-4.34174 7.83522,-5.20135c0,0 -5.58626,0.83506 -7.5671,5.60068c0,0 3.70205,-4.76535 8.63865,-6.01814c0,0 -5.26115,1.69492 -7.79429,5.84629c0,0 1.49386,-2.94809 6.17029,-3.07069c0,0 -3.89714,0.3929 -5.48817,3.16875c0,0 0.71436,-1.17873 3.3775,-1.59646c2.66312,-0.41773 4.90362,-1.86703 4.35169,-3.24281c0,0 0.68193,1.91572 -2.79276,3.19331c-3.47505,1.27759 -4.93503,4.33677 -4.93503,4.33677c0,0 2.82974,2.02649 5.11762,3.73421c-0.18062,0.95632 -0.80436,1.21946 -1.38476,1.32066c-0.20752,0.03618 -5.05231,-4.08476 -5.32836,-4.16685z" stroke-width="0" stroke="#000" fill="#559E84"/>
  <path stroke="#000" id="svg_28" d="m395.76844,360.55654c0.16203,0.13999 0.50493,-0.12514 0.67152,-0.1579c-0.1875,-0.31819 0.51874,-1.86838 0.27499,-2.43134c-0.075,-1.27278 -1.97341,-4.14581 -2.2125,-4.4792c0.0912,-0.22358 1.11327,-0.01553 1.08276,0.01655c-0.42651,0.44851 1.43926,3.02251 1.65474,4.5116c0.39703,-0.02869 0.91855,-0.22287 1.15,0.09791c0.21613,-0.30831 1.88382,-2.66396 1.97499,-4.69948c0.01306,-0.2917 0.91819,-0.10709 0.74793,0.07071c-0.27292,1.26733 -2.19756,4.82559 -2.34792,4.95514c0.17499,1.10959 0.10414,1.18564 1.22187,2.04843c0.50302,-1.54192 1.57482,-2.85079 2.55648,-4.15348c1.10845,-1.46268 1.85236,-2.8639 3.07339,-4.38656c1.60738,-1.93421 3.66019,-3.6991 5.54032,-4.75265c1.30792,-0.7329 3.49933,-1.36121 3.83527,-1.40233c0.62235,-0.07887 1.18515,-0.06487 1.92283,0.07821c1.08847,0.2111 2.15128,0.329 3.29407,1.02927c1.07455,0.89874 0.70309,2.02513 0.50274,3.0802c-1.65499,2.3825 -3.35007,5.23587 -3.88392,8.15501c-0.17949,1.0809 -0.50221,2.9435 -1.26388,4.1135c-1.22451,1.79969 -2.72313,1.73313 -4.13118,1.97709c0.85795,0.32068 1.78849,1.36777 2.62332,2.41996c1.30228,1.65498 1.93684,3.35218 1.60054,5.19988c-0.07159,0.38755 -1.31329,3.32708 -1.92063,4.24943c-2.30517,3.51214 -5.44347,5.89401 -7.97287,5.50744c-0.91087,-0.1392 -3.42337,-2.6358 -3.8751,-3.37249c-1.12138,-1.82876 -2.04247,-4.0346 -2.08033,-5.96045c-0.13939,-0.18181 -0.30987,-0.19524 -0.2347,-0.43848c-0.13968,0.55699 -0.58323,2.37087 -1.23988,3.51758c-0.94933,1.65782 -1.81834,-0.82037 -2.17009,-2.83009c-0.12058,-0.68892 -0.03208,-0.80819 -0.17272,-1.22014c-0.66502,0.32939 -0.31486,1.28449 -0.57585,2.05602c-0.22126,0.67187 -1.21218,2.72402 -1.48582,3.19185c-0.87472,1.49545 -2.83885,3.75843 -4.2633,4.30144c-1.32205,0.50398 -2.44255,0.43327 -3.50508,-0.27813c-1.37047,-0.91757 -3.30187,-3.04861 -4.49008,-4.78137c-1.5042,-2.14402 -2.8189,-5.36532 -1.56762,-7.63437c0.79866,-1.41576 2.302,-3.52561 3.77106,-4.04406c-1.03701,-0.16579 -3.33138,-1.05799 -4.18464,-3.53613c-0.27387,-0.78569 -0.37546,-2.00731 -0.44512,-2.88135c-0.11334,-1.44302 -0.6177,-3.10092 -1.03638,-4.52178c-0.33657,-1.29902 -0.93144,-2.96205 -1.554,-4.38325c-0.65244,-1.4914 -1.18734,-3.95749 -0.0519,-5.17186c0.39663,-0.42427 1.62475,-0.9191 1.88142,-0.95439c0.89719,-0.12507 2.11954,0.45009 3.02694,0.79515c0.59448,0.22794 3.2029,1.4445 3.92427,2.11436c4.75558,4.41599 8.13715,9.91669 10.33407,14.98456z" stroke-width="0" fill="#FFFA8D"/>
  <path id="svg_29" d="m79.14234,240.96056c-0.6471,1.32656 -1.10018,2.02289 -3.30144,2.71833c-0.38898,0.18954 0.12907,0.63202 0.38898,0.56857c1.94136,-0.75808 2.39442,-1.39092 3.30144,-2.78181c0.45307,1.7708 1.48828,2.90871 3.23647,3.60416l0.12995,-0.3799c2.3953,1.26485 4.20759,1.51786 5.76085,1.20141c1.48916,-0.31643 3.23647,-0.56854 4.66154,-0.379c-0.90615,-0.69551 -1.42506,-1.51785 -1.61824,-2.52887c1.4883,-1.5178 4.40164,-0.94841 5.82583,-1.83341l-0.324,-0.69631c3.1074,-1.01103 5.76172,-2.65491 9.45127,-2.14894l-6.08485,-4.29964l0.12907,-0.56942c-1.81228,-1.32743 -3.88359,-1.64388 -6.21479,-0.75804c0.77706,-2.21328 0,-4.61525 2.13714,-6.32252c-0.51804,-0.94844 0,-2.27588 0.90615,-3.47729c0.12996,-2.27587 0.77619,-4.29922 1.94136,-6.13264c-1.87725,1.20141 -3.75364,2.27587 -5.69587,3.22474l-0.324,-0.69588c-0.77619,1.20181 -1.87726,2.08679 -3.36642,2.59188l-0.25902,-0.69544c-2.00721,1.96031 -4.40164,2.97133 -5.89081,5.81744c0.45307,-2.78266 -0.38897,-5.50101 -1.55412,-7.71387l-0.45307,0.44291c-0.84117,-2.71878 -3.81862,-4.48915 -5.69587,-6.702c0.77619,6.06955 -1.49004,6.82806 -1.4242,10.17929l-0.77794,0.06258c1.10106,3.41468 -0.38811,4.99511 0.324,7.33445c-1.81228,-0.885 -4.14349,-0.253 -5.69676,-1.6439c1.87725,2.90875 2.52525,6.44862 5.69676,8.8514l-0.45307,0.18954c1.16516,1.26399 2.65432,2.33934 5.24367,2.97221z" stroke-width="0" stroke="#000" fill="#A0D58A"/>
  <path stroke="#000" id="svg_30" d="m624.78495,61.12492c-3.53228,-1.42679 -6.06409,-5.9604 -5.48871,-9.82839c0.36282,-2.43906 8.01736,-17.24586 8.68584,-16.80174c0.21818,0.14495 2.15975,3.59704 4.31459,7.6713c3.45183,6.52654 3.91789,7.74354 3.91789,10.23054c0,5.04106 -3.75306,9.17025 -8.25939,9.08715c-1.31501,-0.02425 -2.74161,-0.18574 -3.17022,-0.35887l0,0zm3.53894,-2.53547c0.11692,-0.65264 -0.1562,-0.97093 -0.83315,-0.97093c-1.54283,0 -3.68299,-2.10054 -4.16114,-4.0841c-0.51005,-2.11592 -1.86242,-2.36757 -2.06217,-0.38372c-0.38485,3.82216 6.4081,9.05781 7.05645,5.43875l0,0z" stroke-width="0" fill="#A4FFFF"/>
  <path stroke="#000" id="svg_31" d="m448.65883,431.64867c-0.83878,0.31833 -1.60419,0.74273 -2.37571,1.12099c-0.26293,0.12881 -0.56163,0.33355 -0.8053,0.39615c-0.62095,0.15893 -1.59257,-0.11908 -2.38412,-0.14811c-1.97841,-0.07201 -3.25928,0.07735 -4.88564,0.329c-0.76113,0.11751 -1.54916,0.22765 -2.21719,0.42863c-0.57065,0.1718 -1.22493,0.55571 -1.86345,0.8786c-1.00908,0.51037 -1.69637,0.99093 -2.48318,1.60626c-1.31512,1.0278 -2.14305,2.32169 -3.10535,3.74329c-0.42023,0.62051 -1.02543,1.54507 -1.05555,2.27933c-0.55628,0.86526 -1.40149,1.39352 -1.61351,2.66011c0.29641,0.74069 1.06457,0.08205 1.52745,-0.16458c0.38278,-0.20459 0.7946,-0.44903 1.13382,-0.54708c1.76302,-0.51006 4.2199,0.21902 5.93645,-0.24836c0.60841,-0.16552 1.1355,-0.4997 1.73994,-0.64122c0.57402,-0.13477 1.01305,0.10386 1.42228,0.28523c0.21738,0.09665 0.44637,0.22749 0.64388,0.33151c1.27889,0.67824 2.55716,1.39728 4.27417,1.66808c1.3781,0.21698 2.57535,-0.19706 3.69557,-0.42078c0.28433,-0.05695 0.65167,-0.03624 0.86737,-0.28539c-0.89412,-0.20725 -1.63614,-0.56073 -2.56985,-0.93806c-1.22645,-0.49515 -2.17912,-0.83012 -2.64262,-1.82419c0.54895,-0.14748 1.18472,-0.03812 1.75614,0.06464c0.624,0.11171 1.24327,0.21667 1.84205,0.31771c2.52827,0.42722 4.43239,1.14437 6.35699,2.07474c0.93494,0.45138 1.7965,1.08036 2.58896,1.6083c1.62299,1.08256 3.00843,2.42681 4.31514,3.89124c0.59144,0.66303 1.11975,1.4933 1.76118,2.28466c0.28036,0.34595 0.56225,0.7319 0.86187,1.15912c0.28632,0.40588 0.72322,0.90339 0.78375,1.25843c0.06818,0.39207 -0.13468,0.82196 -0.23679,1.25043c-0.17656,0.7443 -0.3068,1.54272 -0.24764,2.30694c0.07735,0.98842 0.29259,1.95111 0.74385,2.69996c0.19582,-0.1787 0.27577,-0.49327 0.37666,-0.78132c0.49468,-0.64891 1.15277,-1.29703 1.16913,-2.37692c1.35119,0.71668 3.97577,0.65659 5.55153,0.63792c0.47374,-0.00565 0.95634,0.04581 1.34875,-0.14324c-0.82762,-0.49233 -1.43512,-1.11535 -2.15451,-1.75139c-1.08841,-0.96096 -1.98865,-1.77053 -3.59314,-2.28466c-0.52005,-0.16662 -1.11547,-0.25683 -1.40042,-0.5656c-0.21906,-0.23628 -0.28571,-0.75967 -0.39684,-1.26377c-0.29886,-1.36292 -0.68744,-2.809 -1.03415,-3.95604c-1.04041,-3.44786 -2.6284,-6.51212 -4.74118,-8.89187c-1.07068,-1.20681 -2.34926,-2.18959 -3.72782,-3.28234c-0.23557,-0.37905 -0.6769,-0.89036 -0.76801,-1.46835c-0.09325,-0.59509 0.0749,-1.11739 0.43323,-1.51715c0.7839,-0.58709 2.01555,-0.65204 2.54814,-1.5308c-0.69631,-0.51445 -1.56032,-0.66522 -2.40812,-0.74932c-1.8315,-0.18184 -3.54744,-0.04064 -4.96819,0.49923z" stroke-width="0" fill="#6D97AB"/>
  <path id="svg_40" d="m261.05759,123.56864c-3.13821,0 -5.69761,2.4097 -5.69761,5.363s2.5594,5.363 5.69761,5.363c3.13821,0 5.69761,-2.4097 5.69761,-5.363s-2.5594,-5.363 -5.69761,-5.363zm14.45168,5.33758c-0.40222,-2.00974 -1.16416,-3.37204 -1.88249,-4.41392c0.0545,0.14253 0.0981,0.28616 0.15042,0.42869c-2.55068,-7.02139 -12.75777,-10.82764 -20.64199,-5.9994c-0.06104,0.29831 -0.07957,0.59442 -0.07957,0.88831c0,-0.05635 -0.00654,-0.10828 -0.00436,-0.16573c-1.89993,-0.14805 -4.20099,2.27712 -6.24699,6.72087c-1.0388,2.51577 -1.41487,5.27019 -0.45127,8.4997c0.56246,1.88489 1.44757,3.8184 2.724,5.3188c3.78351,4.44928 9.57923,6.26456 12.95398,5.342c0.00436,0.0011 0.00981,0.00331 0.01526,0.00442c6.50642,-0.13811 11.43883,-4.67135 13.21667,-10.57242c0.63985,-2.13017 0.68127,-3.87364 0.24635,-6.05132zm-25.6071,10.55584c-1.04643,-1.22861 -1.91301,-2.92899 -2.50599,-4.91884c-0.799,-2.67376 -0.6671,-5.1376 0.41312,-7.7506c1.09658,-2.37877 2.16699,-3.94214 3.08807,-4.88238c0.16351,0.81981 0.56791,1.79871 1.21321,2.92678c0.23763,0.41874 0.50033,0.77451 0.7543,1.11812c0.19512,0.26185 0.38805,0.5237 0.55919,0.80544c0.13516,0.22318 0.26052,0.49166 0.38587,0.81428c-0.26052,3.04279 0.97231,5.67678 3.43143,7.37937l-2.77523,2.48594l-0.22019,0.18893c-0.22673,0.18893 -0.48725,0.41211 -0.70961,0.65076c-1.48245,1.59542 -0.27251,3.12786 0.31175,3.8648l0.07412,0.09612c0.25834,0.32814 0.55919,0.68501 0.88838,1.03636c-1.72553,-0.84853 -3.4565,-2.10807 -4.90843,-3.81509zm24.31977,-4.82824c-1.74406,5.78063 -6.47154,9.61229 -12.06669,9.78796c-2.70874,-0.64413 -4.75473,-1.96665 -6.08894,-3.92999c0.00436,-0.00442 0.0109,-0.00884 0.01635,-0.01436l5.38913,-4.23825c2.42642,-0.137 4.20099,-0.98112 5.2834,-2.51687c1.33202,-1.56006 1.95334,-3.3422 1.84543,-5.37073c1.98059,0.41653 3.69413,0.99769 5.29212,2.08045l0.12644,0.08618l0.14606,0.04751c0.17005,0.05414 0.339,0.08397 0.50033,0.08949c0.11881,1.37003 -0.02289,2.57764 -0.44364,3.9786zm0.27796,-5.11882c-2.12666,-1.44295 -4.42772,-2.06278 -7.18769,-2.52461c0.57881,2.60526 -0.09156,4.49899 -1.44539,6.08999c-0.96141,1.3645 -2.59646,2.01306 -4.78961,2.07161l-5.68998,4.4769c-0.54175,0.45189 -0.64421,0.90488 -0.30739,1.35787c0.92544,1.41091 2.10268,2.4329 3.40309,3.17979c-0.01417,0 -0.02834,0.00221 -0.04251,0.00331c-0.00109,-0.0011 -0.00436,-0.00221 -0.00654,-0.00442c-0.0218,0.00331 -0.04469,0.00442 -0.06758,0.00552c-0.0872,0.0011 -0.17441,-0.0011 -0.26052,-0.01105c-0.17005,-0.0232 -0.34227,-0.07071 -0.50033,-0.13037c-0.97885,-0.36792 -2.06017,-1.49377 -2.83082,-2.47378c-0.63331,-0.80655 -1.31458,-1.58327 -0.448,-2.51356c0.28123,-0.30163 0.6344,-0.5679 0.86004,-0.77119l2.74798,-2.46274c0.18749,-0.15137 0.38151,-0.30605 0.58317,-0.46736c0.05777,-0.0464 0.11663,-0.09281 0.17659,-0.14032c0.61478,-0.48835 0.52649,-0.35356 -0.11772,-0.70932c-2.63679,-1.45842 -4.00806,-3.99297 -3.65598,-7.05896c-0.16242,-0.45299 -0.34554,-0.87505 -0.56464,-1.24186c-0.39568,-0.66292 -0.90909,-1.21756 -1.3015,-1.90368c-0.98103,-1.71916 -2.01329,-4.31117 0.01417,-4.0681c-0.00545,-0.05856 -0.00218,-0.12153 -0.00545,-0.1812c0.10246,2.21083 1.66339,4.22388 1.89884,5.40056c0.08502,0.42206 0.32047,0.77893 0.6671,0.30936c2.76651,-3.751 6.61542,-3.37314 9.07781,-1.44958c0.48289,0.37565 0.74558,0.83417 1.1816,1.2264c0.16787,0.15247 0.35753,0.28616 0.58317,0.38781c0.8099,0.36681 1.96969,0.34472 2.84172,0.47951c1.49444,0.22981 2.95072,0.51266 4.32853,0.89715c0.27251,0.03315 0.46217,-0.00442 0.56791,-0.11159c0.23,-0.22981 -0.00218,-0.98001 -0.13189,-1.39544c0.30194,0.88941 0.58426,1.77772 0.8426,2.66824c0.1973,0.69385 0.15042,1.25402 -0.42075,1.06509z" stroke-width="0" stroke="#000" fill="#97944B"/>
  <path stroke="#000" id="svg_41" d="m261.0576,173.14277c-3.13821,0 -5.69761,2.4097 -5.69761,5.36299s2.5594,5.36299 5.69761,5.36299c3.13821,0 5.69761,-2.4097 5.69761,-5.36299s-2.5594,-5.36299 -5.69761,-5.36299zm14.45169,5.33758c-0.40222,-2.00974 -1.16416,-3.37204 -1.88249,-4.41392c0.0545,0.14253 0.0981,0.28616 0.15042,0.42869c-2.55068,-7.02139 -12.75777,-10.82764 -20.642,-5.99939c-0.06104,0.29831 -0.07957,0.59442 -0.07957,0.88831c0,-0.05635 -0.00654,-0.10828 -0.00436,-0.16573c-1.89993,-0.14805 -4.201,2.27712 -6.24699,6.72087c-1.0388,2.51577 -1.41487,5.27019 -0.45127,8.49969c0.56246,1.88489 1.44757,3.8184 2.724,5.3188c3.78351,4.44927 9.57923,6.26456 12.95398,5.342c0.00436,0.0011 0.00981,0.00331 0.01526,0.00442c6.50642,-0.13811 11.43883,-4.67135 13.21668,-10.57241c0.63985,-2.13017 0.68127,-3.87364 0.24635,-6.05132zm-25.60711,10.55584c-1.04643,-1.22861 -1.91301,-2.92899 -2.50599,-4.91884c-0.799,-2.67376 -0.6671,-5.1376 0.41312,-7.7506c1.09658,-2.37877 2.16699,-3.94214 3.08807,-4.88238c0.16351,0.81981 0.56791,1.79871 1.21321,2.92678c0.23763,0.41874 0.50033,0.77451 0.7543,1.11812c0.19512,0.26185 0.38805,0.5237 0.55919,0.80544c0.13516,0.22318 0.26052,0.49166 0.38587,0.81428c-0.26052,3.04279 0.97231,5.67677 3.43143,7.37937l-2.77523,2.48594l-0.22019,0.18893c-0.22673,0.18893 -0.48725,0.41211 -0.70961,0.65076c-1.48245,1.59542 -0.27251,3.12786 0.31175,3.8648l0.07412,0.09612c0.25834,0.32814 0.55919,0.68501 0.88838,1.03636c-1.72553,-0.84853 -3.4565,-2.10807 -4.90843,-3.81508zm24.31978,-4.82824c-1.74406,5.78063 -6.47154,9.61229 -12.06669,9.78796c-2.70874,-0.64413 -4.75473,-1.96665 -6.08894,-3.92999c0.00436,-0.00442 0.0109,-0.00884 0.01635,-0.01436l5.38913,-4.23825c2.42642,-0.137 4.201,-0.98112 5.2834,-2.51687c1.33202,-1.56006 1.95334,-3.3422 1.84543,-5.37073c1.98059,0.41653 3.69413,0.99769 5.29212,2.08045l0.12644,0.08618l0.14606,0.04751c0.17005,0.05414 0.339,0.08397 0.50033,0.08949c0.11881,1.37003 -0.02289,2.57764 -0.44364,3.9786zm0.27796,-5.11882c-2.12666,-1.44295 -4.42772,-2.06278 -7.18769,-2.52461c0.57881,2.60526 -0.09156,4.49899 -1.44539,6.08999c-0.96141,1.3645 -2.59646,2.01306 -4.78962,2.07161l-5.68998,4.4769c-0.54175,0.45189 -0.64421,0.90488 -0.30739,1.35787c0.92544,1.41091 2.10268,2.4329 3.40309,3.17979c-0.01417,0 -0.02834,0.00221 -0.04251,0.00331c-0.00109,-0.0011 -0.00436,-0.00221 -0.00654,-0.00442c-0.0218,0.00331 -0.04469,0.00442 -0.06758,0.00552c-0.0872,0.0011 -0.17441,-0.0011 -0.26052,-0.01105c-0.17005,-0.0232 -0.34227,-0.07071 -0.50033,-0.13037c-0.97885,-0.36792 -2.06017,-1.49377 -2.83082,-2.47378c-0.63331,-0.80655 -1.31458,-1.58327 -0.448,-2.51356c0.28123,-0.30163 0.6344,-0.5679 0.86004,-0.77119l2.74798,-2.46273c0.18749,-0.15137 0.38151,-0.30605 0.58317,-0.46736c0.05777,-0.0464 0.11663,-0.09281 0.17659,-0.14032c0.61478,-0.48835 0.52649,-0.35356 -0.11772,-0.70932c-2.6368,-1.45842 -4.00806,-3.99297 -3.65598,-7.05896c-0.16242,-0.45299 -0.34554,-0.87505 -0.56464,-1.24186c-0.39568,-0.66292 -0.90909,-1.21756 -1.3015,-1.90368c-0.98103,-1.71916 -2.0133,-4.31117 0.01417,-4.0681c-0.00545,-0.05856 -0.00218,-0.12153 -0.00545,-0.1812c0.10246,2.21083 1.66339,4.22388 1.89884,5.40056c0.08502,0.42206 0.32047,0.77893 0.6671,0.30936c2.76651,-3.751 6.61542,-3.37314 9.07781,-1.44958c0.48289,0.37565 0.74558,0.83417 1.1816,1.2264c0.16787,0.15247 0.35753,0.28616 0.58317,0.38781c0.8099,0.36681 1.96969,0.34472 2.84172,0.47951c1.49444,0.22981 2.95073,0.51266 4.32853,0.89715c0.27251,0.03315 0.46217,-0.00442 0.56791,-0.11159c0.23,-0.22981 -0.00218,-0.98001 -0.13189,-1.39544c0.30194,0.88941 0.58426,1.77772 0.8426,2.66824c0.1973,0.69385 0.15042,1.25402 -0.42075,1.06509z" stroke-width="0" fill="#97944B"/>
  <path id="svg_42" d="m261.0576,220.31835c-3.13821,0 -5.69762,2.4928 -5.69762,5.54793s2.5594,5.54793 5.69762,5.54793c3.13821,0 5.69762,-2.4928 5.69762,-5.54793s-2.5594,-5.54793 -5.69762,-5.54793zm14.4517,5.52164c-0.40222,-2.07904 -1.16416,-3.48831 -1.88249,-4.56613c0.0545,0.14744 0.0981,0.29603 0.15042,0.44347c-2.55068,-7.26351 -12.75778,-11.20101 -20.64201,-6.20627c-0.06104,0.3086 -0.07957,0.61491 -0.07957,0.91894c0,-0.05829 -0.00654,-0.11201 -0.00436,-0.17144c-1.89993,-0.15316 -4.201,2.35564 -6.247,6.95263c-1.0388,2.60252 -1.41487,5.45192 -0.45127,8.79279c0.56246,1.94989 1.44757,3.95007 2.724,5.50221c3.78352,4.6027 9.57924,6.48058 12.95399,5.52621c0.00436,0.00114 0.00981,0.00343 0.01526,0.00457c6.50643,-0.14287 11.43884,-4.83243 13.21669,-10.93698c0.63985,-2.20363 0.68127,-4.00722 0.24635,-6.25999zm-25.60713,10.91984c-1.04643,-1.27097 -1.91301,-3.02999 -2.50599,-5.08846c-0.799,-2.76596 -0.6671,-5.31476 0.41312,-8.01786c1.09658,-2.46079 2.16699,-4.07808 3.08807,-5.05074c0.16351,0.84808 0.56791,1.86074 1.21321,3.0277c0.23763,0.43318 0.50033,0.80121 0.7543,1.15668c0.19512,0.27088 0.38805,0.54176 0.55919,0.83322c0.13516,0.23088 0.26052,0.50862 0.38587,0.84236c-0.26052,3.14771 0.97231,5.87253 3.43143,7.63383l-2.77523,2.57166l-0.22019,0.19545c-0.22673,0.19545 -0.48725,0.42632 -0.70961,0.6732c-1.48245,1.65043 -0.27251,3.23572 0.31175,3.99807l0.07412,0.09944c0.25834,0.33946 0.55919,0.70864 0.88838,1.0721c-1.72553,-0.87779 -3.4565,-2.18077 -4.90843,-3.94664zm24.3198,-4.99474c-1.74406,5.97997 -6.47154,9.94375 -12.0667,10.12548c-2.70874,-0.66635 -4.75474,-2.03447 -6.08894,-4.06551c0.00436,-0.00457 0.0109,-0.00914 0.01635,-0.01486l5.38914,-4.38439c2.42642,-0.14173 4.201,-1.01495 5.28341,-2.60366c1.33202,-1.61386 1.95334,-3.45745 1.84543,-5.55593c1.9806,0.4309 3.69413,1.03209 5.29213,2.15219l0.12644,0.08915l0.14606,0.04915c0.17005,0.05601 0.339,0.08686 0.50033,0.09258c0.11881,1.41727 -0.02289,2.66653 -0.44364,4.1158zm0.27796,-5.29533c-2.12666,-1.49271 -4.42773,-2.13391 -7.1877,-2.61166c0.57881,2.6951 -0.09156,4.65413 -1.44539,6.3c-0.96141,1.41156 -2.59647,2.08247 -4.78962,2.14305l-5.68999,4.63127c-0.54175,0.46747 -0.64421,0.93608 -0.30739,1.4047c0.92544,1.45956 2.10268,2.5168 3.40309,3.28944c-0.01417,0 -0.02834,0.00229 -0.04251,0.00343c-0.00109,-0.00114 -0.00436,-0.00229 -0.00654,-0.00457c-0.0218,0.00343 -0.04469,0.00457 -0.06758,0.00571c-0.0872,0.00114 -0.17441,-0.00114 -0.26052,-0.01143c-0.17005,-0.024 -0.34227,-0.07315 -0.50033,-0.13487c-0.97885,-0.38061 -2.06017,-1.54528 -2.83082,-2.55909c-0.63331,-0.83436 -1.31458,-1.63786 -0.448,-2.60023c0.28123,-0.31203 0.6344,-0.58748 0.86004,-0.79779l2.74798,-2.54766c0.18749,-0.15659 0.38151,-0.3166 0.58317,-0.48347c0.05777,-0.048 0.11663,-0.09601 0.17659,-0.14516c0.61478,-0.50519 0.52649,-0.36575 -0.11772,-0.73378c-2.6368,-1.50871 -4.00806,-4.13066 -3.65598,-7.30237c-0.16242,-0.46861 -0.34554,-0.90522 -0.56464,-1.28469c-0.39568,-0.68578 -0.90909,-1.25954 -1.3015,-1.96932c-0.98103,-1.77845 -2.0133,-4.45983 0.01417,-4.20838c-0.00545,-0.06058 -0.00218,-0.12573 -0.00545,-0.18745c0.10246,2.28706 1.6634,4.36954 1.89884,5.58679c0.08502,0.43661 0.32047,0.80579 0.6671,0.32003c2.76651,-3.88035 6.61543,-3.48946 9.07782,-1.49956c0.48289,0.38861 0.74558,0.86293 1.1816,1.26869c0.16787,0.15773 0.35753,0.29603 0.58317,0.40118c0.8099,0.37946 1.9697,0.3566 2.84172,0.49604c1.49444,0.23774 2.95073,0.53033 4.32853,0.92808c0.27251,0.03429 0.46218,-0.00457 0.56791,-0.11544c0.23,-0.23774 -0.00218,-1.01381 -0.13189,-1.44356c0.30194,0.92008 0.58426,1.83902 0.8426,2.76025c0.1973,0.71778 0.15042,1.29726 -0.42075,1.10181z" stroke-width="0" stroke="#000" fill="#97944B"/>
 </g>
</svg>