<svg t="1688632837529" class="icon" viewBox="0 0 1024 1024" version="1.1" xmlns="http://www.w3.org/2000/svg" p-id="4343" width="128" height="128"><path d="M480 64C217.6 64 0 281.6 0 544S217.6 1024 480 1024 960 806.4 960 544 742.4 64 480 64z m0 896C249.6 960 64 774.4 64 544S249.6 128 480 128 896 313.6 896 544 710.4 960 480 960z" fill="#231815" p-id="4344"></path><path d="M480 576c19.2 0 32-12.8 32-32v-256c0-19.2-12.8-32-32-32s-32 12.8-32 32v256c0 19.2 12.8 32 32 32zM480 640c-38.4 0-64 25.6-64 64s25.6 64 64 64 64-25.6 64-64-25.6-64-64-64z" fill="#231815" p-id="4345"></path></svg>