<?xml version="1.0" standalone="no"?><!DOCTYPE svg PUBLIC "-//W3C//DTD SVG 1.1//EN" "http://www.w3.org/Graphics/SVG/1.1/DTD/svg11.dtd"><svg t="1687770108290" class="icon" viewBox="0 0 1024 1024" version="1.1" xmlns="http://www.w3.org/2000/svg" p-id="1240" xmlns:xlink="http://www.w3.org/1999/xlink" width="128" height="128"><path d="M512 511.968m-512 0a512 512 0 1 0 1024 0 512 512 0 1 0-1024 0Z" fill="#EDD87E" p-id="1241"></path><path d="M512 832c176.704-0.032 319.968-143.328 320-320.032H192C192 688.704 335.264 832 512 832z" fill="#FFFFFF" p-id="1242"></path><path d="M384 805.152c10.4 4.576 21.056 8.672 32 12.128v-305.312h-32v293.184zM608 511.968v305.312a304.32 304.32 0 0 0 31.968-12.128v-293.184H608z" fill="#EAEAEA" p-id="1243"></path><path d="M830.368 543.968c1.056-10.496 1.632-21.184 1.632-32H192c0 10.816 0.576 21.504 1.632 32h636.736zM512 959.968c-193.216 0-363.744-95.424-468.256-241.408C123.2 898.336 302.784 1023.968 512 1023.968s388.768-125.632 468.256-305.408c-104.512 145.984-275.04 241.408-468.256 241.408z" fill="" p-id="1244"></path><path d="M398.88 241.28a57.984 57.984 0 0 0-87.264 5.28 57.984 57.984 0 0 0-87.264-5.312 59.456 59.456 0 0 0 0 83.52l87.296 88.128 87.232-88.128a59.424 59.424 0 0 0 0-83.488zM799.616 241.28a57.92 57.92 0 0 0-87.232 5.248 57.984 57.984 0 0 0-87.296-5.248 59.392 59.392 0 0 0 0 83.488l87.296 88.128 87.264-88.128a59.424 59.424 0 0 0-0.032-83.488z" fill="#EF4D4D" p-id="1245"></path></svg>